<svg width="260" height="59" viewBox="0 0 260 59" fill="none" xmlns="http://www.w3.org/2000/svg">
<path d="M0.0960002 47V0.343998H24.672C34.144 0.343998 40.288 4.568 40.288 13.336C40.288 19.096 36.896 23.256 31.648 24.6V25.048C37.024 26.008 39.328 28.888 39.328 34.072V41.56C39.328 43.288 39.328 45.144 40.16 47H28.576C28.064 45.912 27.808 43.928 27.808 41.56V36.056C27.808 32.536 26.464 30.424 21.28 30.424H11.552V47H0.0960002ZM21.856 9.752H11.552V21.4H21.856C26.656 21.4 28.512 18.84 28.512 15.448C28.512 11.288 25.76 9.752 21.856 9.752ZM44.0895 47V0.343998H54.9055V18.392H55.4175C57.1455 14.04 61.3055 11.8 65.9775 11.8C72.8895 11.8 78.1375 15.704 78.1375 26.008V47H67.3215V28.376C67.3215 23.128 65.6575 20.568 61.5615 20.568C57.2095 20.568 54.9055 24.024 54.9055 27.608V47H44.0895ZM95.8445 47.64C86.4365 47.64 80.4205 43.032 80.3565 36.248H90.9805C91.2365 38.936 93.2205 40.088 96.1005 40.088C99.0445 40.088 100.516 39 100.516 37.208C100.516 34.904 98.9165 34.456 94.5645 33.816C85.4125 32.536 81.1885 29.976 81.1885 23.128C81.1885 16.344 87.2045 11.8 96.2285 11.8C104.74 11.8 110.436 16.088 110.757 22.552H100.132C100.068 20.376 98.4685 19.352 95.9085 19.352C93.5405 19.352 92.0045 20.312 92.0045 22.168C92.0045 24.344 93.8605 24.856 98.9805 25.56C107.748 26.712 111.46 29.528 111.46 36.248C111.46 43.544 105.252 47.64 95.8445 47.64ZM130.331 47.64C119.323 47.64 112.987 40.6 112.987 29.976C112.987 18.776 119.643 11.8 129.947 11.8C142.107 11.8 147.867 20.44 146.651 32.216H123.611C123.547 36.952 126.235 39.576 130.331 39.576C133.595 39.576 135.451 38.232 136.155 36.248H146.331C145.435 43.16 139.035 47.64 130.331 47.64ZM129.947 19.864C126.363 19.864 123.995 22.04 123.675 25.624H136.027C135.835 21.784 133.403 19.864 129.947 19.864ZM161.56 47.64C153.432 47.64 149.272 42.84 149.272 34.136V12.44H160.088V31.192C160.088 36.184 161.752 38.872 165.912 38.872C170.2 38.872 172.504 35.416 172.504 31.768V12.44H183.32V47H172.888L172.504 40.984H171.992C170.392 45.336 166.296 47.64 161.56 47.64ZM188.162 47V12.44H198.594L198.978 18.392H199.49C201.218 14.04 205.378 11.8 210.05 11.8C216.962 11.8 222.21 15.704 222.21 26.008V47H211.394V28.376C211.394 23.128 209.73 20.568 205.634 20.568C201.282 20.568 198.978 24.024 198.978 27.608V47H188.162ZM241.507 58.328C232.035 58.328 226.402 54.04 225.954 47.512H236.387C236.707 49.432 238.691 50.712 241.826 50.712C247.075 50.712 248.675 48.408 248.675 44.568V39.832H248.163C246.882 43.096 243.17 45.272 238.498 45.272C230.498 45.272 225.186 39.192 225.186 28.568C225.186 18.008 230.498 11.8 238.498 11.8C242.851 11.8 246.819 13.784 248.163 17.24H248.739L249.059 12.44H259.491V42.392C259.491 54.232 252.451 58.328 241.507 58.328ZM242.594 36.568C246.691 36.568 248.611 33.816 248.611 29.976V27.16C248.611 23 246.307 20.504 242.851 20.504C238.179 20.504 236.194 23.768 236.194 28.568C236.194 33.368 238.05 36.568 242.594 36.568Z" fill="black"/>
</svg>
