<svg width="263" height="61" viewBox="0 0 263 61" fill="none" xmlns="http://www.w3.org/2000/svg">
<path d="M0.522727 47V0.454544H19.75C23.2348 0.454544 26.2424 1.08333 28.7727 2.34091C31.3182 3.58333 33.2803 5.37121 34.6591 7.70454C36.0379 10.0227 36.7273 12.7727 36.7273 15.9545C36.7273 19.1818 36.0227 21.9242 34.6136 24.1818C33.2045 26.4242 31.2045 28.1364 28.6136 29.3182C26.0227 30.4848 22.9545 31.0682 19.4091 31.0682H7.25V22.2045H17.3182C19.0152 22.2045 20.4318 21.9848 21.5682 21.5455C22.7197 21.0909 23.5909 20.4091 24.1818 19.5C24.7727 18.5758 25.0682 17.3939 25.0682 15.9545C25.0682 14.5151 24.7727 13.3258 24.1818 12.3864C23.5909 11.4318 22.7197 10.7197 21.5682 10.25C20.4167 9.76515 19 9.52273 17.3182 9.52273H11.7727V47H0.522727ZM26.7273 25.7273L38.3182 47H26.0455L14.6818 25.7273H26.7273ZM52.0914 27.0909V47H40.9777V0.454544H51.7277V18.5H52.1141C52.902 16.3485 54.1899 14.6667 55.9777 13.4545C57.7808 12.2424 59.9853 11.6364 62.5914 11.6364C65.0459 11.6364 67.1823 12.1818 69.0005 13.2727C70.8186 14.3485 72.2277 15.8712 73.2277 17.8409C74.2429 19.8106 74.7429 22.1136 74.7277 24.75V47H63.6141V26.9318C63.6292 24.9924 63.1444 23.4773 62.1595 22.3864C61.1747 21.2955 59.7883 20.75 58.0005 20.75C56.8338 20.75 55.8035 21.0076 54.9095 21.5227C54.0308 22.0227 53.3414 22.7424 52.8414 23.6818C52.3565 24.6212 52.1065 25.7576 52.0914 27.0909ZM110.223 22.75L100.018 23.0227C99.9119 22.2955 99.624 21.6515 99.1543 21.0909C98.6846 20.5152 98.071 20.0682 97.3134 19.75C96.571 19.4167 95.7074 19.25 94.7225 19.25C93.4346 19.25 92.3361 19.5076 91.427 20.0227C90.5331 20.5379 90.0937 21.2348 90.1089 22.1136C90.0937 22.7955 90.3664 23.3864 90.927 23.8864C91.5028 24.3864 92.5255 24.7879 93.9952 25.0909L100.723 26.3636C104.207 27.0303 106.798 28.1364 108.495 29.6818C110.207 31.2273 111.071 33.2727 111.086 35.8182C111.071 38.2121 110.359 40.2955 108.95 42.0682C107.556 43.8409 105.647 45.2197 103.223 46.2045C100.798 47.1742 98.0255 47.6591 94.9043 47.6591C89.9195 47.6591 85.9877 46.6364 83.1089 44.5909C80.2452 42.5303 78.6089 39.7727 78.1998 36.3182L89.177 36.0455C89.4195 37.3182 90.0483 38.2879 91.0634 38.9545C92.0786 39.6212 93.374 39.9545 94.9498 39.9545C96.374 39.9545 97.5331 39.6894 98.427 39.1591C99.321 38.6288 99.7755 37.9242 99.7907 37.0455C99.7755 36.2576 99.4271 35.6288 98.7452 35.1591C98.0634 34.6742 96.9952 34.2955 95.5407 34.0227L89.4498 32.8636C85.9498 32.2273 83.3437 31.053 81.6316 29.3409C79.9195 27.6136 79.071 25.4167 79.0861 22.75C79.071 20.4167 79.6922 18.4242 80.9498 16.7727C82.2074 15.1061 83.9952 13.8333 86.3134 12.9545C88.6316 12.0758 91.3664 11.6364 94.518 11.6364C99.2452 11.6364 102.973 12.6288 105.7 14.6136C108.427 16.5833 109.935 19.2955 110.223 22.75ZM130.956 47.6591C127.304 47.6591 124.153 46.9394 121.501 45.5C118.865 44.0455 116.835 41.9773 115.41 39.2955C114.001 36.5985 113.297 33.3939 113.297 29.6818C113.297 26.0758 114.009 22.9242 115.433 20.2273C116.857 17.5152 118.865 15.4091 121.456 13.9091C124.047 12.3939 127.1 11.6364 130.615 11.6364C133.1 11.6364 135.373 12.0227 137.433 12.7955C139.494 13.5682 141.274 14.7121 142.774 16.2273C144.274 17.7424 145.441 19.6136 146.274 21.8409C147.107 24.053 147.524 26.5909 147.524 29.4545V32.2273H117.183V25.7727H137.183C137.168 24.5909 136.888 23.5379 136.342 22.6136C135.797 21.6894 135.047 20.9697 134.092 20.4545C133.153 19.9242 132.07 19.6591 130.842 19.6591C129.6 19.6591 128.486 19.9394 127.501 20.5C126.517 21.0455 125.736 21.7955 125.16 22.75C124.585 23.6894 124.282 24.7576 124.251 25.9545V32.5227C124.251 33.947 124.532 35.197 125.092 36.2727C125.653 37.3333 126.448 38.1591 127.479 38.75C128.509 39.3409 129.736 39.6364 131.16 39.6364C132.145 39.6364 133.039 39.5 133.842 39.2273C134.645 38.9545 135.335 38.553 135.91 38.0227C136.486 37.4924 136.918 36.8409 137.206 36.0682L147.41 36.3636C146.986 38.6515 146.054 40.6439 144.615 42.3409C143.191 44.0227 141.32 45.3333 139.001 46.2727C136.683 47.197 134.001 47.6591 130.956 47.6591ZM173.803 31.9318V12.0909H184.894V47H174.303V40.5H173.939C173.167 42.6364 171.848 44.3333 169.985 45.5909C168.136 46.8333 165.901 47.4545 163.28 47.4545C160.901 47.4545 158.811 46.9091 157.008 45.8182C155.204 44.7273 153.803 43.2045 152.803 41.25C151.803 39.2803 151.295 36.9773 151.28 34.3409V12.0909H162.394V32.1591C162.409 34.053 162.909 35.5455 163.894 36.6364C164.879 37.7273 166.22 38.2727 167.917 38.2727C169.023 38.2727 170.015 38.0303 170.894 37.5455C171.788 37.0455 172.492 36.3258 173.008 35.3864C173.538 34.4318 173.803 33.2803 173.803 31.9318ZM201.161 27.0909V47H190.048V12.0909H200.616V18.5H201.002C201.775 16.3636 203.093 14.6894 204.957 13.4773C206.82 12.25 209.04 11.6364 211.616 11.6364C214.07 11.6364 216.199 12.1894 218.002 13.2955C219.82 14.3864 221.23 15.9167 222.23 17.8864C223.245 19.8409 223.745 22.1288 223.73 24.75V47H212.616V26.9318C212.631 24.9924 212.139 23.4773 211.139 22.3864C210.154 21.2955 208.783 20.75 207.025 20.75C205.858 20.75 204.828 21.0076 203.934 21.5227C203.055 22.0227 202.373 22.7424 201.889 23.6818C201.419 24.6212 201.177 25.7576 201.161 27.0909ZM244.963 60.8182C241.645 60.8182 238.804 60.3561 236.44 59.4318C234.077 58.5076 232.221 57.2424 230.872 55.6364C229.524 54.0303 228.713 52.2121 228.44 50.1818L238.963 49.5909C239.16 50.303 239.524 50.9242 240.054 51.4545C240.599 51.9848 241.304 52.3939 242.167 52.6818C243.046 52.9697 244.077 53.1136 245.258 53.1136C247.122 53.1136 248.66 52.6591 249.872 51.75C251.099 50.8561 251.713 49.2879 251.713 47.0455V40.9091H251.327C250.887 41.9848 250.221 42.947 249.327 43.7955C248.433 44.6439 247.319 45.3106 245.986 45.7955C244.667 46.2803 243.152 46.5227 241.44 46.5227C238.895 46.5227 236.561 45.9318 234.44 44.75C232.334 43.553 230.645 41.7045 229.372 39.2045C228.114 36.6894 227.486 33.4545 227.486 29.5C227.486 25.4242 228.137 22.0682 229.44 19.4318C230.743 16.7803 232.448 14.8182 234.554 13.5455C236.675 12.2727 238.955 11.6364 241.395 11.6364C243.228 11.6364 244.796 11.9545 246.099 12.5909C247.417 13.2121 248.501 14.0152 249.349 15C250.198 15.9848 250.842 17.0076 251.281 18.0682H251.599V12.0909H262.667V47.1364C262.667 50.0909 261.925 52.5833 260.44 54.6136C258.955 56.6439 256.88 58.1818 254.213 59.2273C251.546 60.2879 248.463 60.8182 244.963 60.8182ZM245.304 38.4318C246.652 38.4318 247.804 38.0758 248.758 37.3636C249.713 36.6515 250.448 35.6288 250.963 34.2955C251.478 32.9621 251.736 31.3636 251.736 29.5C251.736 27.6061 251.478 25.9773 250.963 24.6136C250.463 23.2348 249.728 22.1742 248.758 21.4318C247.804 20.6894 246.652 20.3182 245.304 20.3182C243.925 20.3182 242.758 20.697 241.804 21.4545C240.849 22.2121 240.122 23.2803 239.622 24.6591C239.137 26.0227 238.895 27.6364 238.895 29.5C238.895 31.3636 239.145 32.9621 239.645 34.2955C240.145 35.6288 240.864 36.6515 241.804 37.3636C242.758 38.0758 243.925 38.4318 245.304 38.4318Z" fill="currentColor" stroke="none" />
</svg>
